# xmcd
#
# Track frame offsets:
# 375
# 13496
# 28559
# 42659
# 57077
# 70744
# 83035
# 103256
# 118693
# 136111
# 153366
# 167149
# 178635
# 191558
#
# Disc length: 2735 seconds
#
#
# Revision: 0
# Processed by: cddbd v1.5.1PL2 Copyright (c) Steve Scherf et al.
# Submitted via: FreeRIP 2.943 
#
DISCID=c00aaa0e
DTITLE=Klostertaler - Die Klostertaler CD 1 von 2
DYEAR=2003
DGENRE=Folk
TTITLE0=Ein Mann ist keine Maschine
TTITLE1=Hal-le-lu-ja
TTITLE2=Schätzle, mei Spätzle
TTITLE3=Lieber ledig als frei
TTITLE4=Alles net wahr
TTITLE5=Komm her und trau di
TTITLE6=Eine Frage der Ehre
TTITLE7=Weit, weit oben
TTITLE8=Die Sterne stehen gut
TTITLE9=Wenn du lachst
TTITLE10=Ich sag ganz leise Dankeschön
TTITLE11=Franz fahr net nach San Francisco
TTITLE12=Jung und stark
TTITLE13=An a Wunder hob i g'laubt
EXTD=
EXTT0=
EXTT1=
EXTT2=
EXTT3=
EXTT4=
EXTT5=
EXTT6=
EXTT7=
EXTT8=
EXTT9=
EXTT10=
EXTT11=
EXTT12=
EXTT13=
PLAYORDER=
